<svg version="1.1" xmlns="http://www.w3.org/2000/svg" xmlns:xlink="http://www.w3.org/1999/xlink" x="0px" y="0px"
	 width="841.891px" height="1190.551px" viewBox="0 0 841.891 1190.551" enable-background="new 0 0 841.891 1190.551"
	 xml:space="preserve">
<g id="Artboard_x5F_2">
	<rect x="2.09" y="2.5" fill="#C1E3D2" width="839.801" height="1188.051"/>
	<g>
		<g id="FRONT_3_">
			<polygon opacity="0.34" fill="#4C4C4D" stroke="#FFFFFF" stroke-width="0.15" stroke-miterlimit="10" points="514.125,405.586
				596.026,376.041 596.026,368.815 514.125,398.469 			"/>
			<polyline opacity="0.34" fill="#4C4C4D" stroke="#FFFFFF" stroke-width="0.15" stroke-miterlimit="10" points="609.914,479.557
				609.914,427.368 607.203,435.022 602.643,436.641 602.643,475.029 588.868,479.99 588.868,487.215 609.914,479.557 			"/>
			<polyline opacity="0.34" fill="#4C4C4D" stroke="#FFFFFF" stroke-width="0.15" stroke-miterlimit="10" points="627.055,524.846
				627.055,473.412 817.549,404.51 817.549,397.283 619.786,468.883 619.786,520.318 564.135,540.479 564.135,547.706
				565.76,547.06 572.924,544.472 627.055,524.846 			"/>
			<polyline opacity="0.34" fill="#4C4C4D" stroke="#FFFFFF" stroke-width="0.15" stroke-miterlimit="10" points="588.868,464.139
				581.599,466.725 581.599,527.865 588.868,525.277 588.868,464.139 			"/>
			<polyline opacity="0.34" fill="#4C4C4D" stroke="#FFFFFF" stroke-width="0.15" stroke-miterlimit="10" points="572.924,469.314
				565.76,465.217 565.76,482.146 572.924,479.557 572.924,469.314 			"/>
			<polyline opacity="0.34" fill="#4C4C4D" stroke="#FFFFFF" stroke-width="0.15" stroke-miterlimit="10" points="572.924,492.931
				565.76,495.625 565.76,533.688 572.924,530.992 572.924,492.931 			"/>
			<polyline opacity="0.34" fill="#4C4C4D" stroke="#FFFFFF" stroke-width="0.15" stroke-miterlimit="10" points="536.041,552.883
				536.041,506.301 574.985,492.281 574.985,485.059 564.681,488.723 529.202,501.555 529.313,547.706 494.27,560.431
				494.27,567.98 536.041,552.883 			"/>

				<line opacity="0.34" fill="#4C4C4D" stroke="#FFFFFF" stroke-width="0.15" stroke-miterlimit="10" x1="421.583" y1="530.725" x2="421.481" y2="530.668"/>
			<polyline opacity="0.34" fill="#4C4C4D" stroke="#FFFFFF" stroke-width="0.15" stroke-miterlimit="10" points="421.481,530.668
				421.481,538.325 411.829,541.776 411.829,534.117 421.481,530.668 421.481,538.325 421.614,538.4 			"/>
			<polyline opacity="0.34" fill="#4C4C4D" stroke="#FFFFFF" stroke-width="0.15" stroke-miterlimit="10" points="233.595,263.896
				225.894,266.701 225.894,504.036 233.159,501.34 233.595,263.896 			"/>
			<polyline opacity="0.34" fill="#4C4C4D" stroke="#FFFFFF" stroke-width="0.15" stroke-miterlimit="10" points="254.53,499.83
				174.797,528.728 174.797,488.291 176.317,487.754 219.165,472.225 219.165,465.002 176.317,480.53 168.069,483.547
				168.069,538.325 254.53,507.055 254.53,499.83 			"/>
			<polyline opacity="0.34" fill="#4C4C4D" stroke="#FFFFFF" stroke-width="0.15" stroke-miterlimit="10" points="304.649,521.936
				297.487,524.521 297.487,547.924 302.479,550.726 304.649,552.02 304.649,521.936 			"/>
			<polyline opacity="0.34" fill="#4C4C4D" stroke="#FFFFFF" stroke-width="0.15" stroke-miterlimit="10" points="304.649,585.125
				304.649,566.469 297.487,562.263 297.487,580.596 280.567,586.634 288.269,591.055 304.649,585.125 			"/>
			<polyline opacity="0.34" fill="#4C4C4D" stroke="#FFFFFF" stroke-width="0.15" stroke-miterlimit="10" points="274.928,595.907
				267.228,591.486 233.05,603.886 233.05,555.039 233.159,514.819 225.894,517.405 225.894,557.626 225.894,613.698
				274.928,595.907 			"/>
			<polyline opacity="0.34" fill="#4C4C4D" stroke="#FFFFFF" stroke-width="0.15" stroke-miterlimit="10" points="254.421,584.153
				247.155,579.948 247.155,587.711 254.421,585.125 254.421,584.153 			"/>
			<polyline opacity="0.34" fill="#4C4C4D" stroke="#FFFFFF" stroke-width="0.15" stroke-miterlimit="10" points="302.802,601.621
				302.802,595.367 291.849,599.36 291.849,605.609 302.802,601.621 			"/>
			<polyline opacity="0.34" fill="#4C4C4D" stroke="#FFFFFF" stroke-width="0.15" stroke-miterlimit="10" points="316.69,605.721
				309.421,601.621 309.421,630.626 316.69,628.039 316.69,605.721 			"/>
			<polyline opacity="0.34" fill="#4C4C4D" stroke="#FFFFFF" stroke-width="0.15" stroke-miterlimit="10" points="341.532,587.605
				334.919,583.724 315.171,590.946 321.786,594.723 341.532,587.605 			"/>
			<polyline opacity="0.34" fill="#4C4C4D" stroke="#FFFFFF" stroke-width="0.15" stroke-miterlimit="10" points="370.278,571
				359.974,574.663 359.974,580.917 370.278,577.145 370.278,571 			"/>
			<polyline opacity="0.34" fill="#4C4C4D" stroke="#FFFFFF" stroke-width="0.15" stroke-miterlimit="10" points="384.162,565.686
				384.162,565.93 392.411,563.018 			"/>
			<polyline opacity="0.34" fill="#4C4C4D" stroke="#FFFFFF" stroke-width="0.15" stroke-miterlimit="10" points="392.411,563.018
				392.411,569.164 384.162,572.183 384.162,565.93 392.411,563.018 392.194,562.893 			"/>
			<polyline opacity="0.34" fill="#4C4C4D" stroke="#FFFFFF" stroke-width="0.15" stroke-miterlimit="10" points="453.27,550.511
				453.27,542.854 411.829,557.842 411.718,513.416 404.669,515.896 404.669,568.087 453.27,550.511 			"/>
			<polyline opacity="0.34" fill="#4C4C4D" stroke="#FFFFFF" stroke-width="0.15" stroke-miterlimit="10" points="384.162,591.809
				384.162,551.803 398.052,546.737 398.052,539.188 376.896,546.737 376.896,587.605 376.896,620.384 359.974,626.529
				359.974,633.43 384.162,624.696 384.162,591.809 			"/>
			<polyline opacity="0.34" fill="#4C4C4D" stroke="#FFFFFF" stroke-width="0.15" stroke-miterlimit="10" points="418.12,637.095
				418.12,629.872 393.604,638.716 393.604,645.938 418.12,637.095 			"/>
			<polyline opacity="0.34" fill="#4C4C4D" stroke="#FFFFFF" stroke-width="0.15" stroke-miterlimit="10" points="467.587,523.336
				467.587,502.528 459.884,505.223 459.884,566.577 467.369,563.88 467.587,523.336 			"/>
			<polyline opacity="0.34" fill="#4C4C4D" stroke="#FFFFFF" stroke-width="0.15" stroke-miterlimit="10" points="467.154,619.413
				467.154,605.938 467.261,593.859 467.261,577.793 459.992,580.487 459.884,596.445 459.884,614.778 432.331,624.696
				432.331,631.925 467.154,619.413 			"/>
			<polyline opacity="0.34" fill="#4C4C4D" stroke="#FFFFFF" stroke-width="0.15" stroke-miterlimit="10" points="555.347,587.495
				572.924,581.135 572.924,573.91 572.924,544.472 565.76,547.06 565.76,576.495 547.648,583.074 494.27,602.377 494.27,509.533
				496.338,508.778 496.338,501.555 487.005,504.898 487.005,541.345 487.112,604.964 487.112,612.188 555.347,587.495 			"/>
			<polyline opacity="0.34" fill="#4C4C4D" stroke="#FFFFFF" stroke-width="0.15" stroke-miterlimit="10" points="393.604,635.911
				386.337,638.496 386.337,682.927 432.331,666.313 432.331,590.408 480.389,573.045 480.389,565.391 425.065,585.449
				425.065,661.788 393.604,673.109 393.604,635.911 			"/>
			<polyline fill="#F69891" stroke="#FFFFFF" stroke-width="0.3" stroke-miterlimit="10" points="379.712,651.003 379.712,643.78
				359.974,650.897 359.974,532.179 352.271,534.876 352.271,660.924 379.712,651.003 			"/>
			<polyline opacity="0.34" fill="#4C4C4D" stroke="#FFFFFF" stroke-width="0.15" stroke-miterlimit="10" points="345.546,638.608
				345.546,631.705 94.847,722.175 94.847,729.295 345.546,638.608 			"/>
			<polyline opacity="0.34" fill="#4C4C4D" stroke="#FFFFFF" stroke-width="0.15" stroke-miterlimit="10" points="589.739,352.966
				581.599,348.221 556.977,357.172 556.977,334.095 549.708,329.998 549.708,367.413 589.739,352.966 			"/>
			<polyline opacity="0.34" fill="#4C4C4D" stroke="#FFFFFF" stroke-width="0.15" stroke-miterlimit="10" points="518.573,385.207
				518.573,349.729 522.041,348.543 522.041,341.426 510.979,345.417 510.873,380.785 501.649,384.129 466.938,396.638
				466.938,403.861 518.573,385.207 			"/>
			<polyline opacity="0.34" fill="#4C4C4D" stroke="#FFFFFF" stroke-width="0.15" stroke-miterlimit="10" points="435.366,373.021
				428.211,375.717 428.211,398.147 493.945,374.424 493.945,380.68 501.649,377.874 501.649,364.395 435.366,388.334
				435.366,373.021 			"/>
			<polyline opacity="0.34" fill="#4C4C4D" stroke="#FFFFFF" stroke-width="0.15" stroke-miterlimit="10" points="444.915,369.68
				444.915,362.021 383.406,384.236 383.406,391.891 444.915,369.68 			"/>
			<polyline opacity="0.34" fill="#4C4C4D" stroke="#FFFFFF" stroke-width="0.15" stroke-miterlimit="10" points="336.542,373.992
				329.384,376.582 329.384,397.607 336.542,394.91 336.542,373.992 			"/>
			<polyline opacity="0.34" fill="#4C4C4D" stroke="#FFFFFF" stroke-width="0.15" stroke-miterlimit="10" points="383.406,377.119
				376.246,379.706 376.246,436.857 383.406,434.27 383.406,377.119 			"/>
			<polyline opacity="0.34" fill="#4C4C4D" stroke="#FFFFFF" stroke-width="0.15" stroke-miterlimit="10" points="443.831,469.314
				423.001,476.861 431.134,481.607 443.831,476.971 443.831,469.314 			"/>
			<polyline fill="#F69891" stroke="#FFFFFF" stroke-width="0.3" stroke-miterlimit="10" points="359.974,481.713 352.271,484.519
				352.271,496.704 357.696,499.83 357.696,507.918 352.271,509.967 352.271,520.533 359.974,517.73 359.974,481.713 			"/>
			<polyline opacity="0.34" fill="#4C4C4D" stroke="#FFFFFF" stroke-width="0.15" stroke-miterlimit="10" points="387.528,404.615
				383.406,406.124 383.406,413.351 387.528,411.842 387.528,404.615 			"/>
			<polyline opacity="0.34" fill="#4C4C4D" stroke="#FFFFFF" stroke-width="0.15" stroke-miterlimit="10" points="369.521,418.309
				369.521,411.086 347.821,418.957 347.821,426.182 369.521,418.309 			"/>
			<polyline opacity="0.34" fill="#4C4C4D" stroke="#FFFFFF" stroke-width="0.15" stroke-miterlimit="10" points="280.999,430.818
				278.936,429.633 273.298,431.682 273.298,444.622 280.999,441.816 280.999,430.818 			"/>
			<polyline opacity="0.34" fill="#4C4C4D" stroke="#FFFFFF" stroke-width="0.15" stroke-miterlimit="10" points="280.999,389.52
				340.667,367.953 333.073,363.641 273.298,385.316 273.298,412.057 279.483,415.615 280.999,415.075 280.999,389.52 			"/>
			<polyline opacity="0.34" fill="#4C4C4D" stroke="#FFFFFF" stroke-width="0.15" stroke-miterlimit="10" points="336.542,469.963
				336.542,419.818 329.384,415.615 329.384,444.189 333.832,446.775 333.832,454.434 329.384,456.051 329.384,465.324
				293.908,478.155 293.908,485.383 336.542,469.963 			"/>
			<polyline opacity="0.34" fill="#4C4C4D" stroke="#FFFFFF" stroke-width="0.15" stroke-miterlimit="10" points="258.978,436.857
				369.521,396.852 369.521,389.305 251.711,431.898 251.711,484.09 333.832,454.434 333.832,446.775 258.978,473.845
				258.978,436.857 			"/>
			<polyline opacity="0.34" fill="#4C4C4D" stroke="#FFFFFF" stroke-width="0.15" stroke-miterlimit="10" points="245.091,462.845
				245.091,455.619 233.269,459.933 233.269,467.156 245.091,462.845 			"/>
			<polyline opacity="0.34" fill="#4C4C4D" stroke="#FFFFFF" stroke-width="0.15" stroke-miterlimit="10" points="203.542,452.063
				203.542,390.058 203.542,386.395 196.276,382.293 196.276,406.557 196.276,447.103 150.601,463.598 158.739,468.236
				203.542,452.063 			"/>
			<polyline opacity="0.34" fill="#4C4C4D" stroke="#FFFFFF" stroke-width="0.15" stroke-miterlimit="10" points="632.045,308.649
				632.157,324.713 639.641,322.018 639.748,298.836 564.681,326.01 572.165,330.32 632.045,308.649 			"/>
			<polyline opacity="0.34" fill="#4C4C4D" stroke="#FFFFFF" stroke-width="0.15" stroke-miterlimit="10" points="543.086,333.881
				535.929,336.359 535.929,343.475 543.086,340.887 543.086,333.881 			"/>

				<line opacity="0.34" fill="#4C4C4D" stroke="#FFFFFF" stroke-width="0.15" stroke-miterlimit="10" x1="528.665" y1="310.264" x2="535.929" y2="307.676"/>
			<polygon opacity="0.34" fill="#4C4C4D" stroke="#FFFFFF" stroke-width="0.15" stroke-miterlimit="10" points="528.665,310.264
				528.665,362.021 536.041,359.325 536.041,351.889 535.929,307.676 			"/>
			<polyline opacity="0.34" fill="#4C4C4D" stroke="#FFFFFF" stroke-width="0.15" stroke-miterlimit="10" points="469.324,283.846
				462.056,279.748 462.056,322.771 469.324,326.869 469.324,283.846 			"/>
			<polyline opacity="0.34" fill="#4C4C4D" stroke="#FFFFFF" stroke-width="0.15" stroke-miterlimit="10" points="494.489,342.398
				487.331,338.301 487.331,351.025 494.489,348.437 494.489,342.398 			"/>
			<polyline opacity="0.34" fill="#4C4C4D" stroke="#FFFFFF" stroke-width="0.15" stroke-miterlimit="10" points="469.324,340.672
				462.056,336.575 462.056,359.975 469.434,357.388 469.324,340.672 			"/>
			<polyline opacity="0.34" fill="#4C4C4D" stroke="#FFFFFF" stroke-width="0.15" stroke-miterlimit="10" points="407.596,298.08
				400.22,300.881 400.22,316.842 407.596,321.047 407.596,298.08 			"/>
			<polyline opacity="0.34" fill="#4C4C4D" stroke="#FFFFFF" stroke-width="0.15" stroke-miterlimit="10" points="435.366,337.004
				428.211,339.594 428.211,361.806 435.366,359.221 435.366,337.004 			"/>
			<polyline opacity="0.34" fill="#4C4C4D" stroke="#FFFFFF" stroke-width="0.15" stroke-miterlimit="10" points="407.596,335.065
				400.22,330.752 400.22,358.357 407.596,355.875 407.596,335.065 			"/>
			<polyline opacity="0.34" fill="#4C4C4D" stroke="#FFFFFF" stroke-width="0.15" stroke-miterlimit="10" points="363.122,336.252
				355.852,338.84 355.852,355.445 349.562,357.711 357.047,362.021 363.122,359.867 363.122,336.252 			"/>
			<polyline opacity="0.34" fill="#4C4C4D" stroke="#FFFFFF" stroke-width="0.15" stroke-miterlimit="10" points="332.635,332.693
				332.635,325.467 313.22,332.584 313.22,342.29 320.488,339.594 320.488,337.115 332.635,332.693 			"/>
			<polyline opacity="0.34" fill="#4C4C4D" stroke="#FFFFFF" stroke-width="0.15" stroke-miterlimit="10" points="349.233,342.613
				349.233,342.184 341.966,338.084 300.312,353.182 308.011,357.601 349.233,342.613 			"/>
			<polyline opacity="0.34" fill="#4C4C4D" stroke="#FFFFFF" stroke-width="0.15" stroke-miterlimit="10" points="639.528,360.297
				632.262,362.887 632.262,367.198 639.313,364.611 639.528,364.717 639.528,360.297 			"/>
			<polyline opacity="0.34" fill="#4C4C4D" stroke="#FFFFFF" stroke-width="0.15" stroke-miterlimit="10" points="639.528,334.956
				632.262,337.547 632.262,349.514 639.528,346.818 639.528,334.956 			"/>
			<polyline opacity="0.34" fill="#4C4C4D" stroke="#FFFFFF" stroke-width="0.15" stroke-miterlimit="10" points="676.85,346.712
				676.85,383.59 666.978,387.254 666.978,394.803 684.114,389.197 684.114,336.899 609.914,363.748 609.914,370.975
				676.85,346.712 			"/>
			<polyline opacity="0.34" fill="#4C4C4D" stroke="#FFFFFF" stroke-width="0.15" stroke-miterlimit="10" points="646.362,332.479
				646.362,324.822 594.947,343.475 603.084,348.113 646.362,332.479 			"/>
			<polyline opacity="0.34" fill="#4C4C4D" stroke="#FFFFFF" stroke-width="0.15" stroke-miterlimit="10" points="393.169,326.762
				393.169,319.538 356.938,332.693 363.122,336.252 363.122,337.654 393.169,326.762 			"/>
			<polyline opacity="0.34" fill="#4C4C4D" stroke="#FFFFFF" stroke-width="0.15" stroke-miterlimit="10" points="609.914,363.748
				609.914,357.601 609.914,351.995 603.192,354.475 603.192,400.196 609.914,381.324 609.914,370.975 609.914,363.748 			"/>
			<g>
				<polyline fill="#F69891" stroke="#FFFFFF" stroke-width="0.3" stroke-miterlimit="10" points="542.44,407.527 535.281,410.115
					535.281,438.473 542.98,435.777 542.98,419.281 557.083,434.594 564.786,431.787 575.743,412.057 575.743,446.455
					583.443,443.652 583.443,392.646 576.176,395.343 559.362,425.752 542.44,407.527 				"/>
				<polyline fill="#F69891" stroke="#FFFFFF" stroke-width="0.3" stroke-miterlimit="10" points="513.586,426.074 513.586,417.988
					472.686,432.76 472.686,483.658 520.852,466.294 520.852,440.092 497.741,448.395 497.741,456.59 513.15,450.982
					513.15,460.903 480.389,472.764 480.389,438.152 513.586,426.074 				"/>
				<polyline fill="#F69891" stroke="#FFFFFF" stroke-width="0.3" stroke-miterlimit="10" points="359.429,435.67 352.271,438.152
					352.271,470.068 359.974,467.372 359.974,446.238 392.739,473.949 400.44,471.256 400.44,428.877 445.35,412.596
					445.35,418.309 452.509,415.724 452.509,401.92 393.169,423.379 393.169,464.031 359.429,435.67 				"/>
				<polyline fill="#F69891" stroke="#FFFFFF" stroke-width="0.3" stroke-miterlimit="10" points="458.259,496.594 458.259,463.275
					450.555,466.078 450.555,491.205 332.964,533.688 332.964,516.869 357.696,507.918 357.696,499.83 332.964,508.778
					332.964,491.418 373.535,476.754 373.535,468.668 325.368,486.027 325.368,544.688 458.259,496.594 				"/>
				<polyline fill="#F69891" stroke="#FFFFFF" stroke-width="0.3" stroke-miterlimit="10" points="625.535,377.443 618.373,380.031
					597.874,438.365 602.643,436.641 607.203,435.022 614.473,414.32 631.502,408.174 638.769,423.596 646.038,421.006
					638.769,405.586 625.535,377.443 				"/>
				<polyline fill="#F69891" stroke="#FFFFFF" stroke-width="0.3" stroke-miterlimit="10" points="458.259,438.045 450.555,440.739
					450.555,447.963 458.259,445.161 458.259,438.045 				"/>
			</g>
		</g>
		<g id="UP_4_">
			<g>
				<polyline fill="#FFFFFF" stroke="#000000" stroke-width="0.1" stroke-miterlimit="10" points="817.549,397.283 810.821,393.51
					613.06,465.002 619.786,468.883 817.549,397.283 				"/>
				<polyline fill="#FFFFFF" stroke="#000000" stroke-width="0.1" stroke-miterlimit="10" points="566.303,451.198 559.037,453.785
					581.599,466.725 588.868,464.139 566.303,451.198 				"/>
				<polyline fill="#FFFFFF" stroke="#000000" stroke-width="0.1" stroke-miterlimit="10" points="564.681,488.723 574.985,485.059
					574.985,478.801 521.719,498.104 529.202,501.555 564.681,488.723 				"/>
				<polyline fill="#FFFFFF" stroke="#000000" stroke-width="0.1" stroke-miterlimit="10" points="536.041,517.622 536.041,524.307
					564.135,540.479 619.786,520.318 613.06,516.545 564.681,534.013 536.041,517.622 				"/>
				<polyline fill="#FFFFFF" stroke="#000000" stroke-width="0.1" stroke-miterlimit="10" points="496.881,495.195 480.389,501.125
					487.005,504.898 496.338,501.555 521.719,516.219 521.719,509.426 496.881,495.195 				"/>
				<polyline fill="#FFFFFF" stroke="#000000" stroke-width="0.1" stroke-miterlimit="10" points="529.313,547.706 521.719,544.257
					494.27,554.176 494.27,560.431 529.313,547.706 				"/>
				<polyline fill="#FFFFFF" stroke="#000000" stroke-width="0.1" stroke-miterlimit="10" points="547.648,583.074 565.76,576.495
					559.037,572.723 541.03,579.191 494.27,596.123 494.27,602.377 547.648,583.074 				"/>
				<polyline fill="#FFFFFF" stroke="#000000" stroke-width="0.1" stroke-miterlimit="10" points="255.071,493.469 174.797,522.475
					174.797,528.728 254.53,499.83 297.487,524.521 304.649,521.936 255.071,493.469 				"/>
				<polyline fill="#FFFFFF" stroke="#000000" stroke-width="0.1" stroke-miterlimit="10" points="297.487,580.596 290.763,576.713
					273.95,582.858 280.567,586.634 297.487,580.596 				"/>
				<polyline fill="#FFFFFF" stroke="#000000" stroke-width="0.1" stroke-miterlimit="10" points="260.604,587.711 233.05,597.631
					233.05,603.886 267.228,591.486 260.604,587.711 				"/>
				<polyline fill="#FFFFFF" stroke="#000000" stroke-width="0.1" stroke-miterlimit="10" points="259.519,588.035 254.421,585.125
					247.155,587.711 252.362,590.625 259.519,588.035 				"/>
				<polyline fill="#FFFFFF" stroke="#000000" stroke-width="0.1" stroke-miterlimit="10" points="273.841,596.338 266.679,598.926
					302.802,619.628 302.802,612.838 273.841,596.338 				"/>
				<polyline fill="#FFFFFF" stroke="#000000" stroke-width="0.1" stroke-miterlimit="10" points="309.962,587.929 302.802,590.517
					345.546,615.098 345.546,608.306 309.962,587.929 				"/>
				<polyline fill="#FFFFFF" stroke="#000000" stroke-width="0.1" stroke-miterlimit="10" points="334.919,583.724 328.297,579.948
					291.849,593.103 247.263,567.548 240.536,569.918 291.849,599.36 302.802,595.367 302.802,590.517 309.962,587.929
					315.171,590.946 334.919,583.724 				"/>
				<polyline fill="#FFFFFF" stroke="#000000" stroke-width="0.1" stroke-miterlimit="10" points="370.278,564.742 359.974,568.52
					359.974,570.675 359.974,574.663 370.278,571 370.278,564.742 				"/>
				<polyline fill="#FFFFFF" stroke="#000000" stroke-width="0.1" stroke-miterlimit="10" points="422.027,524.199 411.829,527.973
					411.829,534.117 421.481,530.668 440.141,541.452 411.829,551.695 411.829,557.842 453.27,542.854 453.27,542.207
					422.027,524.199 				"/>
				<polyline fill="#FFFFFF" stroke="#000000" stroke-width="0.1" stroke-miterlimit="10" points="280.132,538.002 237.285,513.309
					233.159,514.819 233.159,517.73 272.974,540.589 345.546,582.213 345.546,575.525 309.093,554.607 302.479,550.726
					280.132,538.002 				"/>
				<polyline fill="#FFFFFF" stroke="#000000" stroke-width="0.1" stroke-miterlimit="10" points="345.546,631.705 345.546,625.452
					88.229,718.295 94.847,722.175 345.546,631.705 				"/>
				<polyline fill="#FFFFFF" stroke="#000000" stroke-width="0.1" stroke-miterlimit="10" points="363.88,618.875 359.974,616.609
					359.974,620.275 363.88,618.875 				"/>
				<polyline fill="#FFFFFF" stroke="#000000" stroke-width="0.1" stroke-miterlimit="10" points="398.052,539.188 398.052,532.936
					370.278,542.965 376.896,546.737 398.052,539.188 				"/>
				<polyline fill="#FFFFFF" stroke="#000000" stroke-width="0.1" stroke-miterlimit="10" points="376.896,620.384 370.278,616.501
					359.974,620.275 359.974,626.529 376.896,620.384 				"/>
				<polyline fill="#FFFFFF" stroke="#000000" stroke-width="0.1" stroke-miterlimit="10" points="377.979,626.959 370.712,629.546
					386.337,638.496 393.604,635.911 377.979,626.959 				"/>
				<polyline fill="#FFFFFF" stroke="#000000" stroke-width="0.1" stroke-miterlimit="10" points="379.712,643.78 379.712,641.947
					375.052,639.251 359.974,644.752 359.974,650.897 379.712,643.78 				"/>
				<polyline fill="#FFFFFF" stroke="#000000" stroke-width="0.1" stroke-miterlimit="10" points="418.12,629.872 418.12,623.62
					390.024,633.861 393.604,635.911 393.604,638.716 418.12,629.872 				"/>
				<polyline fill="#FFFFFF" stroke="#000000" stroke-width="0.1" stroke-miterlimit="10" points="425.065,661.788 418.12,658.015
					393.604,666.856 393.604,673.109 425.065,661.788 				"/>
				<polyline fill="#FFFFFF" stroke="#000000" stroke-width="0.1" stroke-miterlimit="10" points="457.713,496.811 450.015,499.505
					459.884,505.223 467.587,502.528 457.713,496.811 				"/>
				<polyline fill="#FFFFFF" stroke="#000000" stroke-width="0.1" stroke-miterlimit="10" points="459.884,614.778 453.27,610.896
					432.331,618.551 432.331,624.696 459.884,614.778 				"/>
				<polyline fill="#FFFFFF" stroke="#000000" stroke-width="0.1" stroke-miterlimit="10" points="480.389,565.391 480.389,559.135
					418.12,581.674 425.065,585.449 480.389,565.391 				"/>
				<polyline fill="#FFFFFF" stroke="#000000" stroke-width="0.1" stroke-miterlimit="10" points="436.776,372.591 435.366,373.021
					435.366,378.52 439.27,380.785 446.435,378.088 436.776,372.591 				"/>
				<polyline fill="#FFFFFF" stroke="#000000" stroke-width="0.1" stroke-miterlimit="10" points="596.026,368.815 596.026,362.563
					515.102,391.786 509.354,388.55 501.649,391.352 514.125,398.469 596.026,368.815 				"/>
				<polyline fill="#FFFFFF" stroke="#000000" stroke-width="0.1" stroke-miterlimit="10" points="493.945,386.932 501.649,384.129
					510.873,380.785 504.253,377.012 501.649,377.874 467.48,390.276 460.753,386.395 453.593,388.98 466.938,396.638
					493.945,386.932 				"/>
				<polyline fill="#FFFFFF" stroke="#000000" stroke-width="0.1" stroke-miterlimit="10" points="501.649,364.395 495.03,360.512
					435.366,382.188 435.366,388.334 501.649,364.395 				"/>
				<polyline fill="#FFFFFF" stroke="#000000" stroke-width="0.1" stroke-miterlimit="10" points="444.915,362.021 438.188,358.143
					383.406,377.983 383.406,384.236 444.915,362.021 				"/>
				<polyline fill="#FFFFFF" stroke="#000000" stroke-width="0.1" stroke-miterlimit="10" points="331.657,371.188 324.501,373.774
					329.384,376.582 336.542,373.992 331.657,371.188 				"/>
				<polyline fill="#FFFFFF" stroke="#000000" stroke-width="0.1" stroke-miterlimit="10" points="333.396,348.437 326.131,351.025
					376.246,379.706 383.406,377.119 333.396,348.437 				"/>
				<polyline fill="#FFFFFF" stroke="#000000" stroke-width="0.1" stroke-miterlimit="10" points="386.554,435.995 383.406,434.27
					376.246,436.857 386.554,442.788 386.554,435.995 				"/>
				<polyline fill="#FFFFFF" stroke="#000000" stroke-width="0.1" stroke-miterlimit="10" points="452.509,415.724 445.35,418.309
					465.957,430.279 465.957,428.986 471.816,426.83 452.509,415.724 				"/>
				<polyline fill="#FFFFFF" stroke="#000000" stroke-width="0.1" stroke-miterlimit="10" points="583.443,392.646 576.718,388.873
					569.559,391.461 576.176,395.343 583.443,392.646 				"/>
				<polyline fill="#FFFFFF" stroke="#000000" stroke-width="0.1" stroke-miterlimit="10" points="535.82,403.645 528.665,406.34
					535.281,410.115 542.44,407.527 535.82,403.645 				"/>
				<polyline fill="#FFFFFF" stroke="#000000" stroke-width="0.1" stroke-miterlimit="10" points="513.15,460.903 506.533,457.131
					480.389,466.51 480.389,472.764 513.15,460.903 				"/>
				<polyline fill="#FFFFFF" stroke="#000000" stroke-width="0.1" stroke-miterlimit="10" points="520.852,440.092 514.125,436.319
					498.287,442.033 487.225,435.67 480.389,438.152 480.389,438.473 497.741,448.395 520.852,440.092 				"/>
				<polyline fill="#FFFFFF" stroke="#000000" stroke-width="0.1" stroke-miterlimit="10" points="513.586,417.988 528.665,426.613
					528.665,419.818 514.125,411.516 465.957,428.986 472.686,432.76 513.586,417.988 				"/>
				<polyline fill="#FFFFFF" stroke="#000000" stroke-width="0.1" stroke-miterlimit="10" points="451.532,459.501 443.831,462.197
					450.555,466.078 458.259,463.275 451.532,459.501 				"/>
				<polyline fill="#FFFFFF" stroke="#000000" stroke-width="0.1" stroke-miterlimit="10" points="400.44,443.975 400.44,450.77
					430.376,468.02 408.678,475.891 434.61,490.773 442.312,487.969 423.001,476.861 443.831,469.314 443.831,468.99
					400.44,443.975 				"/>
				<polyline fill="#FFFFFF" stroke="#000000" stroke-width="0.1" stroke-miterlimit="10" points="452.509,401.92 445.892,398.038
					386.554,419.497 393.169,423.379 452.509,401.92 				"/>
				<polyline fill="#FFFFFF" stroke="#000000" stroke-width="0.1" stroke-miterlimit="10" points="352.816,431.787 345.546,434.377
					352.271,438.152 359.429,435.67 352.816,431.787 				"/>
				<polyline fill="#FFFFFF" stroke="#000000" stroke-width="0.1" stroke-miterlimit="10" points="450.555,491.205 443.831,487.428
					332.964,527.543 332.964,533.688 450.555,491.205 				"/>
				<polyline fill="#FFFFFF" stroke="#000000" stroke-width="0.1" stroke-miterlimit="10" points="373.535,468.668 366.808,464.786
					318.64,482.255 325.368,486.027 373.535,468.668 				"/>
				<polyline fill="#FFFFFF" stroke="#000000" stroke-width="0.1" stroke-miterlimit="10" points="357.696,499.83 351.079,496.055
					332.964,502.528 332.964,508.778 357.696,499.83 				"/>
				<polyline fill="#FFFFFF" stroke="#000000" stroke-width="0.1" stroke-miterlimit="10" points="425.714,419.713 418.445,422.408
					450.555,440.739 458.259,438.045 425.714,419.713 				"/>
				<polyline fill="#FFFFFF" stroke="#000000" stroke-width="0.1" stroke-miterlimit="10" points="393.604,401.703 387.634,398.361
					383.406,399.871 383.406,406.124 387.528,404.615 403.041,413.566 410.091,410.979 393.604,401.703 				"/>
				<polyline fill="#FFFFFF" stroke="#000000" stroke-width="0.1" stroke-miterlimit="10" points="369.521,411.086 369.521,404.939
					348.366,412.596 339.798,407.635 332.528,410.224 347.821,418.957 369.521,411.086 				"/>
				<polyline fill="#FFFFFF" stroke="#000000" stroke-width="0.1" stroke-miterlimit="10" points="297.706,383.481 290.438,386.068
					317.778,401.813 324.935,399.117 297.706,383.481 				"/>
				<polyline fill="#FFFFFF" stroke="#000000" stroke-width="0.1" stroke-miterlimit="10" points="271.345,368.386 264.183,370.975
					276.336,377.983 283.497,375.393 271.345,368.386 				"/>
				<polyline fill="#FFFFFF" stroke="#000000" stroke-width="0.1" stroke-miterlimit="10" points="329.384,465.324 322.658,461.553
					293.908,471.903 290.657,470.068 284.038,472.441 293.908,478.155 329.384,465.324 				"/>
				<polyline fill="#FFFFFF" stroke="#000000" stroke-width="0.1" stroke-miterlimit="10" points="333.832,446.775 329.384,444.189
					322.658,440.415 294.343,424.132 287.073,426.719 319.943,445.59 258.978,467.588 258.978,473.845 333.832,446.775 				"/>
				<polyline fill="#FFFFFF" stroke="#000000" stroke-width="0.1" stroke-miterlimit="10" points="258.978,451.846 258.978,458.1
					269.175,463.922 275.789,461.553 258.978,451.846 				"/>
				<polyline fill="#FFFFFF" stroke="#000000" stroke-width="0.1" stroke-miterlimit="10" points="233.374,389.088 233.374,395.883
					272.213,418.203 279.483,415.615 233.374,389.088 				"/>
				<polyline fill="#FFFFFF" stroke="#000000" stroke-width="0.1" stroke-miterlimit="10" points="369.521,389.305 369.521,384.559
					367.894,383.59 245.091,428.018 251.711,431.898 369.521,389.305 				"/>
				<polyline fill="#FFFFFF" stroke="#000000" stroke-width="0.1" stroke-miterlimit="10" points="245.091,449.367 233.269,453.678
					233.269,459.933 245.091,455.619 245.091,449.367 				"/>
				<polyline fill="#FFFFFF" stroke="#000000" stroke-width="0.1" stroke-miterlimit="10" points="219.165,465.002 219.165,458.745
					176.317,474.275 161.454,479.668 168.069,483.547 176.317,480.53 219.165,465.002 				"/>
				<polyline fill="#FFFFFF" stroke="#000000" stroke-width="0.1" stroke-miterlimit="10" points="198.663,369.248 189.657,370.866
					219.165,387.795 219.165,381.002 198.663,369.248 				"/>
				<polyline fill="#FFFFFF" stroke="#000000" stroke-width="0.1" stroke-miterlimit="10" points="150.601,463.598 196.276,447.103
					189.657,443.221 136.722,462.412 164.816,478.48 171.976,475.891 150.601,463.598 				"/>
				<polyline fill="#FFFFFF" stroke="#000000" stroke-width="0.1" stroke-miterlimit="10" points="186.294,484.09 179.134,486.674
					215.692,507.701 219.165,506.406 219.165,502.956 186.294,484.09 				"/>
				<polyline fill="#FFFFFF" stroke="#000000" stroke-width="0.1" stroke-miterlimit="10" points="646.362,324.822 640.72,321.586
					589.304,340.24 594.947,343.475 646.362,324.822 				"/>
				<polyline fill="#FFFFFF" stroke="#000000" stroke-width="0.1" stroke-miterlimit="10" points="581.599,348.221 575.961,345.092
					556.977,351.995 556.977,357.172 581.599,348.221 				"/>
				<polyline fill="#FFFFFF" stroke="#000000" stroke-width="0.1" stroke-miterlimit="10" points="639.748,298.836 633.132,295.061
					557.954,322.232 564.681,326.01 639.748,298.836 				"/>
				<polyline fill="#FFFFFF" stroke="#000000" stroke-width="0.1" stroke-miterlimit="10" points="549.817,317.49 543.086,319.969
					603.192,354.475 609.914,351.995 594.947,343.475 549.817,317.49 				"/>
				<polyline fill="#FFFFFF" stroke="#000000" stroke-width="0.1" stroke-miterlimit="10" points="543.086,327.625 535.929,330.213
					535.929,336.359 543.086,333.881 543.086,327.625 				"/>
				<polyline fill="#FFFFFF" stroke="#000000" stroke-width="0.1" stroke-miterlimit="10" points="522.041,335.173 504.253,341.642
					510.979,345.417 522.041,341.426 522.041,335.173 				"/>
				<polyline fill="#FFFFFF" stroke="#000000" stroke-width="0.1" stroke-miterlimit="10" points="487.654,324.068 480.604,326.762
					505.664,341.104 512.824,338.518 487.654,324.068 				"/>
				<polyline fill="#FFFFFF" stroke="#000000" stroke-width="0.1" stroke-miterlimit="10" points="407.381,291.287 392.736,296.57
					400.22,300.881 407.596,298.08 480.604,340.027 480.604,333.338 407.381,291.287 				"/>
				<polyline fill="#FFFFFF" stroke="#000000" stroke-width="0.1" stroke-miterlimit="10" points="407.596,355.875 400.22,358.357
					414.757,366.658 421.481,364.18 421.481,363.855 407.596,355.875 				"/>
				<polyline fill="#FFFFFF" stroke="#000000" stroke-width="0.1" stroke-miterlimit="10" points="393.169,319.538 428.211,339.594
					435.366,337.004 393.819,313.066 350.324,328.811 356.938,332.693 393.169,319.538 				"/>
				<polyline fill="#FFFFFF" stroke="#000000" stroke-width="0.1" stroke-miterlimit="10" points="349.233,351.564 342.833,353.826
					349.562,357.711 355.852,355.445 349.233,351.564 				"/>

					<line fill="#FFFFFF" stroke="#000000" stroke-width="0.1" stroke-miterlimit="10" x1="355.852" y1="338.84" x2="332.635" y2="325.467"/>
				<polyline fill="#FFFFFF" stroke="#000000" stroke-width="0.1" stroke-miterlimit="10" points="332.635,325.467 313.22,332.584
					306.599,328.704 333.29,319.105 350.324,328.811 356.938,332.693 363.122,336.252 355.852,338.84 332.635,325.467
					332.635,326.248 				"/>
				<polyline fill="#FFFFFF" stroke="#000000" stroke-width="0.1" stroke-miterlimit="10" points="341.966,338.084 335.349,334.203
					286.425,351.995 310.288,365.688 317.56,362.992 300.312,353.182 341.966,338.084 				"/>
				<polyline fill="#FFFFFF" stroke="#000000" stroke-width="0.1" stroke-miterlimit="10" points="617.723,405.047 620.221,397.93
					621.632,397.392 628.252,401.273 617.723,405.047 				"/>
				<polyline fill="#FFFFFF" stroke="#000000" stroke-width="0.1" stroke-miterlimit="10" points="618.919,373.67 611.647,376.258
					618.373,380.031 625.535,377.443 618.919,373.67 				"/>
				<polyline fill="#FFFFFF" stroke="#000000" stroke-width="0.1" stroke-miterlimit="10" points="639.313,364.611 632.262,367.198
					633.89,368.171 666.978,387.254 676.85,383.59 670.228,379.814 667.629,380.785 639.313,364.611 				"/>
				<polyline fill="#FFFFFF" stroke="#000000" stroke-width="0.1" stroke-miterlimit="10" points="684.114,336.899 677.5,333.124
					609.914,357.601 609.914,363.748 684.114,336.899 				"/>
				<polyline fill="#FFFFFF" stroke="#000000" stroke-width="0.1" stroke-miterlimit="10" points="226.87,260.124 219.164,262.926
					225.894,266.701 233.595,263.896 226.87,260.124 				"/>
				<polyline fill="#FFFFFF" stroke="#000000" stroke-width="0.1" stroke-miterlimit="10" points="602.643,475.029 596.026,471.147
					588.868,473.736 588.868,479.99 602.643,475.029 				"/>
				<polyline fill="#FFFFFF" stroke="#000000" stroke-width="0.1" stroke-miterlimit="10" points="333.073,363.641 326.452,359.867
					266.571,381.434 273.298,385.316 333.073,363.641 				"/>
				<polygon fill="#FFFFFF" stroke="#000000" stroke-width="0.1" stroke-miterlimit="10" points="535.929,307.676 462.706,265.622
					455.438,268.213 528.665,310.264 				"/>
				<polygon fill="#FFFFFF" stroke="#000000" stroke-width="0.1" stroke-miterlimit="10" points="384.162,565.686 384.162,559.678
					385.681,559.135 392.194,562.893 				"/>
			</g>
		</g>
		<g id="SIDE_3_">
			<polyline fill="#4C4C4D" stroke="#FFFFFF" stroke-width="0.15" stroke-miterlimit="10" points="602.643,436.641 597.874,438.365
				596.026,437.288 596.026,471.147 602.643,475.029 602.643,436.641 			"/>
			<polyline fill="#4C4C4D" stroke="#FFFFFF" stroke-width="0.15" stroke-miterlimit="10" points="619.786,468.883 613.06,465.002
				613.06,516.545 619.786,520.318 619.786,468.883 			"/>
			<polyline fill="#4C4C4D" stroke="#FFFFFF" stroke-width="0.15" stroke-miterlimit="10" points="565.76,465.217 574.985,470.5
				574.985,530.345 581.599,527.865 581.599,466.725 559.037,453.785 559.037,459.933 559.037,484.519 565.76,482.146
				565.76,465.217 			"/>
			<polyline fill="#4C4C4D" stroke="#FFFFFF" stroke-width="0.15" stroke-miterlimit="10" points="565.76,495.625 559.037,497.998
				559.037,530.885 564.681,534.013 565.76,533.688 565.76,495.625 			"/>
			<polyline fill="#4C4C4D" stroke="#FFFFFF" stroke-width="0.15" stroke-miterlimit="10" points="536.041,524.307 536.041,531.531
				564.135,547.706 564.135,540.479 536.041,524.307 			"/>
			<polyline fill="#4C4C4D" stroke="#FFFFFF" stroke-width="0.15" stroke-miterlimit="10" points="496.338,501.555 496.338,508.778
				521.719,523.445 521.719,516.219 496.338,501.555 			"/>
			<polyline fill="#4C4C4D" stroke="#FFFFFF" stroke-width="0.15" stroke-miterlimit="10" points="529.202,501.555 521.719,498.104
				521.719,544.257 529.313,547.706 529.202,501.555 			"/>
			<polyline fill="#4C4C4D" stroke="#FFFFFF" stroke-width="0.15" stroke-miterlimit="10" points="225.894,266.701 219.164,262.926
				219.165,506.406 225.894,504.036 225.894,266.701 			"/>
			<polyline fill="#4C4C4D" stroke="#FFFFFF" stroke-width="0.15" stroke-miterlimit="10" points="225.894,517.405 219.165,519.885
				219.165,559.998 219.165,609.815 225.894,613.698 225.894,557.626 225.894,517.405 			"/>
			<polyline fill="#4C4C4D" stroke="#FFFFFF" stroke-width="0.15" stroke-miterlimit="10" points="168.069,483.547 161.454,479.668
				161.454,534.553 168.069,538.325 168.069,483.547 			"/>
			<polyline fill="#4C4C4D" stroke="#FFFFFF" stroke-width="0.15" stroke-miterlimit="10" points="254.53,507.055 290.763,527.865
				290.763,544.039 297.487,547.924 297.487,524.521 254.53,499.83 254.53,507.055 			"/>
			<polyline fill="#4C4C4D" stroke="#FFFFFF" stroke-width="0.15" stroke-miterlimit="10" points="297.487,562.263 290.763,558.49
				290.763,576.713 297.487,580.596 297.487,562.263 			"/>
			<polyline fill="#4C4C4D" stroke="#FFFFFF" stroke-width="0.15" stroke-miterlimit="10" points="240.536,569.918 240.536,591.055
				244.657,593.427 252.362,590.625 247.155,587.711 247.155,579.948 291.849,605.609 291.849,599.36 240.536,569.918 			"/>
			<polyline fill="#4C4C4D" stroke="#FFFFFF" stroke-width="0.15" stroke-miterlimit="10" points="302.802,590.517 302.802,595.367
				302.802,619.628 266.679,598.926 258.978,601.729 309.421,630.626 309.421,601.621 345.546,622.324 345.546,615.098
				302.802,590.517 			"/>
			<polyline fill="#4C4C4D" stroke="#FFFFFF" stroke-width="0.15" stroke-miterlimit="10" points="404.669,515.896 398.052,518.375
				398.052,564.312 404.669,568.087 404.669,515.896 			"/>
			<polyline fill="#4C4C4D" stroke="#FFFFFF" stroke-width="0.15" stroke-miterlimit="10" points="94.847,722.175 88.229,718.295
				88.229,725.518 94.847,729.295 94.847,722.175 			"/>
			<polyline fill="#4C4C4D" stroke="#FFFFFF" stroke-width="0.15" stroke-miterlimit="10" points="352.271,534.876 345.546,537.355
				345.546,582.213 272.974,540.589 233.159,517.73 233.159,525.386 264.836,543.502 345.546,589.867 345.546,657.151
				352.271,660.924 352.271,534.876 			"/>
			<polyline fill="#4C4C4D" stroke="#FFFFFF" stroke-width="0.15" stroke-miterlimit="10" points="376.896,587.605 376.896,546.737
				370.278,542.965 370.278,616.501 376.896,620.384 376.896,587.605 			"/>
			<polyline fill="#4C4C4D" stroke="#FFFFFF" stroke-width="0.15" stroke-miterlimit="10" points="386.337,638.496 370.712,629.546
				363.011,632.35 379.712,641.947 379.712,679.153 386.337,682.927 386.337,638.496 			"/>
			<polyline fill="#4C4C4D" stroke="#FFFFFF" stroke-width="0.15" stroke-miterlimit="10" points="425.065,585.449 418.12,581.674
				418.12,658.015 425.065,661.788 425.065,585.449 			"/>
			<polyline fill="#4C4C4D" stroke="#FFFFFF" stroke-width="0.15" stroke-miterlimit="10" points="459.884,505.223 450.015,499.505
				441.772,502.528 453.27,509.104 453.27,568.948 459.884,566.577 459.884,505.223 			"/>
			<polyline fill="#4C4C4D" stroke="#FFFFFF" stroke-width="0.15" stroke-miterlimit="10" points="459.884,596.445 459.884,580.487
				453.27,582.858 453.27,598.926 453.27,610.896 459.884,614.778 459.884,596.445 			"/>
			<polyline fill="#4C4C4D" stroke="#FFFFFF" stroke-width="0.15" stroke-miterlimit="10" points="565.76,547.06 564.135,547.706
				559.037,544.796 559.037,572.723 565.76,576.495 565.76,547.06 			"/>
			<polyline fill="#4C4C4D" stroke="#FFFFFF" stroke-width="0.15" stroke-miterlimit="10" points="487.005,541.345 487.005,504.898
				480.389,501.125 480.389,608.306 487.112,612.188 487.112,604.964 487.005,541.345 			"/>
			<polyline fill="#4C4C4D" stroke="#FFFFFF" stroke-width="0.15" stroke-miterlimit="10" points="603.192,354.475 543.086,319.969
				543.086,363.641 549.708,367.413 549.708,329.998 596.026,356.525 596.026,420.682 603.192,400.196 603.192,354.475 			"/>
			<polyline fill="#4C4C4D" stroke="#FFFFFF" stroke-width="0.15" stroke-miterlimit="10" points="435.366,378.52 435.366,382.188
				439.27,380.785 435.366,378.52 			"/>
			<polygon fill="#4C4C4D" stroke="#FFFFFF" stroke-width="0.15" stroke-miterlimit="10" points="514.125,405.586 493.945,394.047
				501.649,391.352 514.125,398.469 			"/>
			<polyline fill="#4C4C4D" stroke="#FFFFFF" stroke-width="0.15" stroke-miterlimit="10" points="453.593,388.98 445.892,391.786
				466.938,403.861 466.938,396.638 453.593,388.98 			"/>
			<polyline fill="#4C4C4D" stroke="#FFFFFF" stroke-width="0.15" stroke-miterlimit="10" points="493.945,374.424 487.331,376.797
				487.331,383.05 493.945,380.68 493.945,374.424 			"/>
			<polyline fill="#4C4C4D" stroke="#FFFFFF" stroke-width="0.15" stroke-miterlimit="10" points="428.211,375.717 421.481,378.088
				421.481,394.371 428.211,398.147 428.211,375.717 			"/>
			<polyline fill="#4C4C4D" stroke="#FFFFFF" stroke-width="0.15" stroke-miterlimit="10" points="286.425,351.995 286.425,359.11
				302.585,368.494 310.288,365.688 286.425,351.995 			"/>
			<polyline fill="#4C4C4D" stroke="#FFFFFF" stroke-width="0.15" stroke-miterlimit="10" points="329.384,376.582 324.501,373.774
				316.8,376.582 322.658,380.031 322.658,397.823 324.935,399.117 329.384,397.607 329.384,376.582 			"/>
			<polyline fill="#4C4C4D" stroke="#FFFFFF" stroke-width="0.15" stroke-miterlimit="10" points="376.246,436.857 376.246,379.706
				326.131,351.025 316.905,354.367 354.225,375.717 369.521,384.559 369.521,440.632 386.554,450.443 386.554,442.788
				376.246,436.857 			"/>
			<polyline fill="#4C4C4D" stroke="#FFFFFF" stroke-width="0.15" stroke-miterlimit="10" points="445.35,418.309 445.35,412.596
				438.726,415.075 438.726,422.623 465.957,438.365 465.957,430.279 445.35,418.309 			"/>
			<polyline fill="#4C4C4D" stroke="#FFFFFF" stroke-width="0.15" stroke-miterlimit="10" points="618.373,380.031 611.647,376.258
				591.146,434.486 597.874,438.365 618.373,380.031 			"/>
			<polyline fill="#4C4C4D" stroke="#FFFFFF" stroke-width="0.15" stroke-miterlimit="10" points="575.743,412.057 569.127,424.023
				569.127,442.57 575.743,446.455 575.743,412.057 			"/>
			<polyline fill="#4C4C4D" stroke="#FFFFFF" stroke-width="0.15" stroke-miterlimit="10" points="576.176,395.343 569.559,391.461
				553.829,419.818 559.362,425.752 576.176,395.343 			"/>
			<polyline fill="#4C4C4D" stroke="#FFFFFF" stroke-width="0.15" stroke-miterlimit="10" points="542.98,419.281 542.98,422.732
				550.466,430.818 557.083,434.594 542.98,419.281 			"/>
			<polyline fill="#4C4C4D" stroke="#FFFFFF" stroke-width="0.15" stroke-miterlimit="10" points="535.281,410.115 528.665,406.34
				528.665,426.613 513.586,417.988 513.586,426.074 528.665,434.699 535.281,438.473 535.281,410.115 			"/>
			<polyline fill="#4C4C4D" stroke="#FFFFFF" stroke-width="0.15" stroke-miterlimit="10" points="513.15,450.982 506.533,453.465
				506.533,457.131 513.15,460.903 513.15,450.982 			"/>
			<polyline fill="#4C4C4D" stroke="#FFFFFF" stroke-width="0.15" stroke-miterlimit="10" points="497.741,448.395 480.389,438.473
				480.389,446.562 497.741,456.59 497.741,448.395 			"/>
			<polyline fill="#4C4C4D" stroke="#FFFFFF" stroke-width="0.15" stroke-miterlimit="10" points="472.686,432.76 465.957,428.986
				465.957,430.279 465.957,438.365 465.957,479.883 472.686,483.658 472.686,432.76 			"/>
			<polyline fill="#4C4C4D" stroke="#FFFFFF" stroke-width="0.15" stroke-miterlimit="10" points="450.555,466.078 443.831,462.197
				443.831,487.428 450.555,491.205 450.555,466.078 			"/>
			<polyline fill="#4C4C4D" stroke="#FFFFFF" stroke-width="0.15" stroke-miterlimit="10" points="408.678,475.891 408.678,483.439
				426.474,493.684 434.61,490.773 408.678,475.891 			"/>
			<polyline fill="#4C4C4D" stroke="#FFFFFF" stroke-width="0.15" stroke-miterlimit="10" points="400.44,450.77 400.44,458.424
				422.24,470.932 430.376,468.02 400.44,450.77 			"/>
			<polyline fill="#4C4C4D" stroke="#FFFFFF" stroke-width="0.15" stroke-miterlimit="10" points="393.169,423.379 386.554,419.497
				386.554,458.424 393.169,464.031 393.169,423.379 			"/>
			<polyline fill="#4C4C4D" stroke="#FFFFFF" stroke-width="0.15" stroke-miterlimit="10" points="359.974,446.238 359.974,448.285
				386.117,470.178 392.739,473.949 359.974,446.238 			"/>
			<polyline fill="#4C4C4D" stroke="#FFFFFF" stroke-width="0.15" stroke-miterlimit="10" points="352.271,438.152 345.546,434.377
				345.546,472.548 352.271,470.068 352.271,438.152 			"/>
			<polyline fill="#4C4C4D" stroke="#FFFFFF" stroke-width="0.15" stroke-miterlimit="10" points="352.271,484.519 345.546,486.891
				345.546,497.998 351.079,496.055 352.271,496.704 352.271,484.519 			"/>
			<polyline fill="#4C4C4D" stroke="#FFFFFF" stroke-width="0.15" stroke-miterlimit="10" points="352.271,509.967 345.546,512.338
				345.546,523.013 352.271,520.533 352.271,509.967 			"/>
			<polyline fill="#4C4C4D" stroke="#FFFFFF" stroke-width="0.15" stroke-miterlimit="10" points="325.368,486.027 318.64,482.255
				318.64,540.805 325.368,544.688 325.368,486.027 			"/>
			<polyline fill="#4C4C4D" stroke="#FFFFFF" stroke-width="0.15" stroke-miterlimit="10" points="418.445,422.408 410.745,425.104
				450.555,447.963 450.555,440.739 418.445,422.408 			"/>
			<polyline fill="#4C4C4D" stroke="#FFFFFF" stroke-width="0.15" stroke-miterlimit="10" points="387.528,404.615 387.528,411.842
				395.339,416.369 403.041,413.566 387.528,404.615 			"/>
			<polyline fill="#4C4C4D" stroke="#FFFFFF" stroke-width="0.15" stroke-miterlimit="10" points="332.528,410.224 324.821,413.027
				347.821,426.182 347.821,418.957 332.528,410.224 			"/>
			<polyline fill="#4C4C4D" stroke="#FFFFFF" stroke-width="0.15" stroke-miterlimit="10" points="290.438,386.068 282.735,388.873
				310.07,404.51 317.778,401.813 290.438,386.068 			"/>
			<polyline fill="#4C4C4D" stroke="#FFFFFF" stroke-width="0.15" stroke-miterlimit="10" points="264.183,370.975 264.183,378.195
				268.632,380.785 276.336,377.983 264.183,370.975 			"/>
			<polyline fill="#4C4C4D" stroke="#FFFFFF" stroke-width="0.15" stroke-miterlimit="10" points="273.188,385.207 266.571,381.434
				266.571,408.174 273.298,412.057 273.188,385.207 			"/>
			<polyline fill="#4C4C4D" stroke="#FFFFFF" stroke-width="0.15" stroke-miterlimit="10" points="293.908,430.712 287.073,426.719
				278.936,429.633 311.806,448.501 319.943,445.59 293.908,430.712 			"/>
			<polyline fill="#4C4C4D" stroke="#FFFFFF" stroke-width="0.15" stroke-miterlimit="10" points="329.384,415.615 324.821,413.027
				322.658,413.888 322.658,440.415 329.384,444.189 329.384,415.615 			"/>
			<polyline fill="#4C4C4D" stroke="#FFFFFF" stroke-width="0.15" stroke-miterlimit="10" points="329.384,456.051 322.658,458.424
				322.658,461.553 329.384,465.324 329.384,456.051 			"/>
			<polyline fill="#4C4C4D" stroke="#FFFFFF" stroke-width="0.15" stroke-miterlimit="10" points="293.908,478.155 284.038,472.441
				276.336,475.244 293.908,485.383 293.908,478.155 			"/>
			<polyline fill="#4C4C4D" stroke="#FFFFFF" stroke-width="0.15" stroke-miterlimit="10" points="258.978,458.1 258.978,465.324
				261.474,466.725 269.175,463.922 258.978,458.1 			"/>
			<polyline fill="#4C4C4D" stroke="#FFFFFF" stroke-width="0.15" stroke-miterlimit="10" points="233.374,395.883 233.374,403.537
				264.077,421.223 272.213,418.203 233.374,395.883 			"/>
			<polyline fill="#4C4C4D" stroke="#FFFFFF" stroke-width="0.15" stroke-miterlimit="10" points="251.711,431.898 245.091,428.018
				245.091,480.313 251.711,484.09 251.711,431.898 			"/>
			<polyline fill="#4C4C4D" stroke="#FFFFFF" stroke-width="0.15" stroke-miterlimit="10" points="196.276,406.557 196.276,382.293
				219.165,395.449 219.165,387.795 189.657,370.866 189.657,409.035 189.657,443.221 196.276,447.103 196.276,406.557 			"/>
			<polyline fill="#4C4C4D" stroke="#FFFFFF" stroke-width="0.15" stroke-miterlimit="10" points="136.722,462.412 136.722,470.068
				161.454,484.194 161.454,479.668 164.816,478.48 136.722,462.412 			"/>
			<polyline fill="#4C4C4D" stroke="#FFFFFF" stroke-width="0.15" stroke-miterlimit="10" points="179.134,486.674 176.317,487.754
				174.797,488.291 174.797,491.851 207.447,510.613 215.692,507.701 179.134,486.674 			"/>
			<polyline fill="#4C4C4D" stroke="#FFFFFF" stroke-width="0.15" stroke-miterlimit="10" points="273.298,431.682 266.571,434.162
				266.571,440.846 273.298,444.622 273.298,431.682 			"/>
			<polyline fill="#4C4C4D" stroke="#FFFFFF" stroke-width="0.15" stroke-miterlimit="10" points="510.979,345.417 504.253,341.642
				504.253,377.012 510.873,380.785 510.979,345.417 			"/>
			<polyline fill="#4C4C4D" stroke="#FFFFFF" stroke-width="0.15" stroke-miterlimit="10" points="462.056,279.748 522.041,314.146
				522.041,350.594 519.769,349.299 518.573,349.729 518.573,356.2 528.665,362.021 528.665,310.264 455.438,268.213
				455.438,318.891 462.056,322.771 462.056,279.748 			"/>
			<polyline fill="#4C4C4D" stroke="#FFFFFF" stroke-width="0.15" stroke-miterlimit="10" points="462.056,336.575 455.438,332.693
				455.438,356.2 462.056,359.975 462.056,336.575 			"/>
			<polyline fill="#4C4C4D" stroke="#FFFFFF" stroke-width="0.15" stroke-miterlimit="10" points="487.331,338.301 504.253,348.004
				504.253,341.642 505.664,341.104 480.604,326.762 480.604,340.027 407.596,298.08 407.596,305.303 487.331,351.025
				487.331,338.301 			"/>
			<polyline fill="#4C4C4D" stroke="#FFFFFF" stroke-width="0.15" stroke-miterlimit="10" points="400.22,300.881 392.736,296.57
				392.736,313.498 393.819,313.066 400.22,316.842 400.22,300.881 			"/>
			<polyline fill="#4C4C4D" stroke="#FFFFFF" stroke-width="0.15" stroke-miterlimit="10" points="400.22,330.752 393.169,326.762
				392.739,326.869 392.739,361.268 407.053,369.465 414.757,366.658 400.22,358.357 400.22,330.752 			"/>
			<polyline fill="#4C4C4D" stroke="#FFFFFF" stroke-width="0.15" stroke-miterlimit="10" points="393.169,319.538 393.169,326.762
				400.22,330.752 407.596,335.065 421.481,343.045 421.481,364.18 428.211,361.806 428.211,339.594 393.169,319.538 			"/>
			<polyline fill="#4C4C4D" stroke="#FFFFFF" stroke-width="0.15" stroke-miterlimit="10" points="313.22,332.584 306.599,328.704
				306.599,344.662 313.22,342.29 313.22,332.584 			"/>
			<polyline fill="#4C4C4D" stroke="#FFFFFF" stroke-width="0.15" stroke-miterlimit="10" points="623.043,390.058 628.252,401.273
				621.632,397.392 620.873,395.988 623.043,390.058 			"/>
			<polyline fill="#4C4C4D" stroke="#FFFFFF" stroke-width="0.15" stroke-miterlimit="10" points="631.502,408.174 627.381,409.682
				632.157,419.818 638.769,423.596 631.502,408.174 			"/>
			<polyline fill="#4C4C4D" stroke="#FFFFFF" stroke-width="0.15" stroke-miterlimit="10" points="676.85,346.712 670.228,349.189
				670.228,379.814 676.85,383.59 676.85,346.712 			"/>
			<polyline fill="#4C4C4D" stroke="#FFFFFF" stroke-width="0.15" stroke-miterlimit="10" points="633.89,368.171 632.262,367.198
				632.262,362.887 625.535,365.256 625.535,371.079 649.51,384.773 666.978,394.803 666.978,387.254 633.89,368.171 			"/>
			<polyline fill="#4C4C4D" stroke="#FFFFFF" stroke-width="0.15" stroke-miterlimit="10" points="632.045,308.649 625.535,311.02
				625.535,327.086 632.157,324.713 632.045,308.649 			"/>
			<polyline fill="#4C4C4D" stroke="#FFFFFF" stroke-width="0.15" stroke-miterlimit="10" points="632.262,337.547 625.535,340.027
				625.535,351.889 632.262,349.514 632.262,337.547 			"/>
			<polygon fill="#4C4C4D" stroke="#FFFFFF" stroke-width="0.15" stroke-miterlimit="10" points="332.635,325.467 332.635,332.693
				349.233,342.184 349.233,351.564 355.852,355.445 355.852,338.84 			"/>
			<polyline fill="#4C4C4D" stroke="#FFFFFF" stroke-width="0.15" stroke-miterlimit="10" points="421.614,538.4 421.583,530.725
				440.141,541.452 432.007,544.363 421.614,538.4 			"/>
		</g>
	</g>
</g>
</svg>
